# xmcd
#
# Track frame offsets: 
#        150
#        18062
#        42362
#        62556
#        88777
#        106682
#        128105
#        139897
#        169539
#        191100
#
# Disc length: 2909 seconds
#
# Revision: 1
# Processed by: cddbd v1.5.2PL0 Copyright (c) Steve Scherf et al.
# Submitted via: ExactAudioCopy v0.95b4
#
DISCID=7d0b5b0a
DTITLE=Wolf Mail - Solid Ground
DYEAR=2002
DGENRE=Blues
TTITLE0=Solid Ground
TTITLE1=Hello
TTITLE2=Country Slide Blues
TTITLE3=Stand Down
TTITLE4=Free For All
TTITLE5=100 Years
TTITLE6=Giant Steps
TTITLE7=Hold Onto It
TTITLE8=Takin' Love
TTITLE9=Coming To You
EXTD=
EXTT0=
EXTT1=
EXTT2=
EXTT3=
EXTT4=
EXTT5=
EXTT6=
EXTT7=
EXTT8=
EXTT9=
PLAYORDER=
